<svg xmlns="http://www.w3.org/2000/svg" width="105.073" height="22" viewBox="0 0 105.073 22"><g transform="translate(-13 -25)"><path d="M.8,0V-9.953H3.432A3.622,3.622,0,0,1,6.21-8.846,4.339,4.339,0,0,1,7.267-5.811V-4.2a4.356,4.356,0,0,1-1.036,3.08A3.7,3.7,0,0,1,3.377,0ZM2.81-8.278v6.61h.6A1.686,1.686,0,0,0,4.826-2.2a3.152,3.152,0,0,0,.431-1.829V-5.756A3.535,3.535,0,0,0,4.867-7.7a1.573,1.573,0,0,0-1.326-.578ZM16.65-4.307H13.519v2.639h3.705V0H11.509V-9.953h5.7v1.675H13.519v2.352H16.65Zm9.28,2.27H23.189L22.656,0H20.53l3.11-9.953h1.839L28.61,0H26.463Zm-2.3-1.675h1.859l-.93-3.548ZM34.349-1.668h3.527V0H32.339V-9.953h2.01Zm11.694-.943a1.247,1.247,0,0,0-.311-.919A3.581,3.581,0,0,0,44.6-4.177a5.272,5.272,0,0,1-2.153-1.33,2.672,2.672,0,0,1-.656-1.8,2.525,2.525,0,0,1,.892-2.02,3.366,3.366,0,0,1,2.266-.762,3.393,3.393,0,0,1,1.634.386,2.679,2.679,0,0,1,1.1,1.09,3.271,3.271,0,0,1,.386,1.6h-2a1.651,1.651,0,0,0-.3-1.063,1.042,1.042,0,0,0-.858-.366,1.074,1.074,0,0,0-.82.311,1.169,1.169,0,0,0-.294.837,1.031,1.031,0,0,0,.328.742,3.773,3.773,0,0,0,1.162.687,4.979,4.979,0,0,1,2.116,1.292,2.878,2.878,0,0,1,.66,1.948,2.569,2.569,0,0,1-.827,2.03A3.274,3.274,0,0,1,44.99.137a3.873,3.873,0,0,1-1.757-.4,2.974,2.974,0,0,1-1.241-1.135,3.3,3.3,0,0,1-.448-1.743h2.017A1.9,1.9,0,0,0,43.9-1.887a1.371,1.371,0,0,0,1.094.39Q46.043-1.5,46.043-2.611Z" transform="translate(70 41)" fill="#fff"/><rect width="52" height="22" transform="translate(13 25)" fill="#fff"/><path d="M5.551-2.037H2.81L2.276,0H.15l3.11-9.953H5.1L8.23,0H6.084Zm-2.3-1.675H5.106L4.177-7.26ZM18.318-9.953v6.891a3.219,3.219,0,0,1-.854,2.375A3.306,3.306,0,0,1,15.05.137,3.334,3.334,0,0,1,12.606-.7a3.244,3.244,0,0,1-.844-2.413V-9.953h2.023V-3.1a2.051,2.051,0,0,0,.273,1.21,1.172,1.172,0,0,0,.991.362,1.157,1.157,0,0,0,.984-.359,2.044,2.044,0,0,0,.273-1.179V-9.953ZM29.088-8.278H26.627V0H24.611V-8.278h-2.42V-9.953h6.9Zm10.771,4.2a4.643,4.643,0,0,1-.947,3.11A3.273,3.273,0,0,1,36.284.137a3.31,3.31,0,0,1-2.632-1.1,4.575,4.575,0,0,1-.971-3.073v-1.7a4.893,4.893,0,0,1,.95-3.2A3.233,3.233,0,0,1,36.27-10.09a3.248,3.248,0,0,1,2.618,1.131,4.826,4.826,0,0,1,.971,3.175ZM37.842-5.749a4.087,4.087,0,0,0-.383-2,1.281,1.281,0,0,0-1.189-.656,1.286,1.286,0,0,0-1.183.632,3.884,3.884,0,0,0-.4,1.924v1.771a3.7,3.7,0,0,0,.39,1.924,1.322,1.322,0,0,0,1.2.619,1.288,1.288,0,0,0,1.169-.6,3.63,3.63,0,0,0,.39-1.876Z" transform="translate(19 41)" fill="#10162e"/></g></svg>